<svg width="200" height="3040" viewBox="0 0 200 3040" fill="none" xmlns="http://www.w3.org/2000/svg">
<path d="M122.16 165.475C150.101 69.0931 193.029 14.9992 211 0L206.931 3040C151.208 2956.46 39.7629 2751.63 39.7629 2600.67C39.7629 2411.97 134.706 2291.01 122.16 2205.37C109.614 2119.73 -21.5922 1937.56 3.5 1819.5C23.5737 1725.05 69.9826 1662.77 80.5 1641C80.5 1641 122.16 1572.88 122.16 1506.69C122.16 1423.96 25.5214 1149.98 39.7629 999.5C54.0044 849.024 149.287 831.73 155.39 775.604C161.494 719.478 122.16 622.225 97.4071 439.332C72.654 256.438 87.2346 285.953 122.16 165.475Z" fill="#FFEBDD"/>
</svg>
