<svg width="207" height="1880" viewBox="0 0 207 1880" fill="none" xmlns="http://www.w3.org/2000/svg">
<path d="M44.3093 102.333C18.4227 42.7286 -21.3496 9.27582 -38 0L-34.2301 1880C17.3965 1828.33 120.65 1701.66 120.65 1608.31C120.65 1491.61 32.6855 1416.81 44.3093 1363.85C55.9331 1310.88 228.092 1218.13 204.844 1145.12C186.246 1086.71 140.965 1051.56 120.65 1041.29C95.2029 1021.84 44.3093 972.705 44.3093 931.771C44.3093 880.605 178.14 705.86 164.946 612.803C151.751 519.745 19.1767 514.359 13.5219 479.65C7.86702 444.94 44.3093 384.797 67.2428 271.692C90.1763 158.587 76.6675 176.839 44.3093 102.333Z" fill="#FFEBDD"/>
</svg>
