<svg width="77" height="70" viewBox="0 0 77 70" fill="none" xmlns="http://www.w3.org/2000/svg">
<path d="M70.408 24.6191C68.8045 18.1646 68.1065 11.4383 67.4786 4.91488C67.3482 3.51 68.3672 2.24209 69.7475 2.18615C71.132 2.0303 72.3603 3.07065 72.4939 4.37558C73.097 10.6981 73.7501 17.2217 75.2957 23.3742C75.6317 24.6856 74.8099 26.0606 73.4602 26.4177C72.1116 26.7748 70.745 25.9305 70.408 24.6191Z" fill="black"/>
<path d="M44.1561 43.1893C33.9042 32.5564 25.0559 20.6677 14.5137 10.2256C13.5278 9.29364 13.5245 7.69272 14.5037 6.7235C15.4839 5.75432 17.0816 5.70572 18.0644 6.73763C28.6378 17.1807 37.5163 29.0704 47.7994 39.7043C48.758 40.7354 48.721 42.3346 47.7146 43.303C46.7124 44.1714 45.1147 44.2204 44.1561 43.1893Z" fill="black"/>
<path d="M2.8418 61.18C8.88822 61.6734 14.9346 62.1662 20.9821 62.6596C22.3692 62.7039 23.402 63.9381 23.2898 65.3353C23.1766 66.7324 21.9639 67.6935 20.5757 67.6492C14.5193 67.1554 8.46375 66.6624 2.40828 66.1687C1.02431 66.0244 -0.00137748 64.7908 0.11884 63.3939C0.235863 62.097 1.45884 61.0357 2.8418 61.18Z" fill="black"/>
</svg>
