<svg width="76" height="70" viewBox="0 0 76 70" fill="none" xmlns="http://www.w3.org/2000/svg">
<path d="M6.32779 22.5713C8.32731 16.2319 9.44687 9.56369 10.4841 3.09352C10.7027 1.69979 9.77372 0.369632 8.40962 0.225987C7.0477 -0.01764 5.76438 0.942444 5.54895 2.23622C4.54912 8.50749 3.48696 14.9763 1.56399 21.0179C1.14766 22.3053 1.87452 23.7298 3.18906 24.172C4.50261 24.6142 5.91046 23.8586 6.32779 22.5713Z" fill="black"/>
<path d="M31.1582 42.7738C41.9928 32.8148 51.5167 21.5133 62.6268 11.7632C63.663 10.8958 63.7681 9.29835 62.8595 8.26881C61.95 7.23923 60.3699 7.08907 59.3305 8.05636C48.1894 17.8055 38.6356 29.1061 27.77 39.0641C26.7545 40.0321 26.6894 41.6305 27.625 42.6609C28.5628 43.5913 30.1427 43.7419 31.1582 42.7738Z" fill="black"/>
<path d="M70.9499 63.3567C64.9273 63.4644 58.9049 63.5715 52.8813 63.6791C51.504 63.6351 50.4022 64.8011 50.4245 66.2025C50.4477 67.604 51.5882 68.6404 52.9665 68.6844C58.999 68.577 65.0305 68.4702 71.062 68.3628C72.4425 68.3069 73.5373 67.1411 73.5071 65.7394C73.4736 64.4377 72.3293 63.3007 70.9499 63.3567Z" fill="black"/>
</svg>
